<svg width="23" height="23" viewBox="0 0 23 23" fill="none" xmlns="http://www.w3.org/2000/svg">
<path d="M5.03125 0C5.22187 0 5.40469 0.0757252 5.53948 0.210517C5.67427 0.345309 5.75 0.528126 5.75 0.71875V1.4375H17.25V0.71875C17.25 0.528126 17.3257 0.345309 17.4605 0.210517C17.5953 0.0757252 17.7781 0 17.9688 0C18.1594 0 18.3422 0.0757252 18.477 0.210517C18.6118 0.345309 18.6875 0.528126 18.6875 0.71875V1.4375H20.125C20.8875 1.4375 21.6188 1.7404 22.1579 2.27957C22.6971 2.81874 23 3.55 23 4.3125V20.125C23 20.8875 22.6971 21.6188 22.1579 22.1579C21.6188 22.6971 20.8875 23 20.125 23H2.875C2.1125 23 1.38124 22.6971 0.842068 22.1579C0.302901 21.6188 0 20.8875 0 20.125V4.3125C0 3.55 0.302901 2.81874 0.842068 2.27957C1.38124 1.7404 2.1125 1.4375 2.875 1.4375H4.3125V0.71875C4.3125 0.528126 4.38823 0.345309 4.52302 0.210517C4.65781 0.0757252 4.84063 0 5.03125 0ZM2.875 2.875C2.49375 2.875 2.12812 3.02645 1.85853 3.29603C1.58895 3.56562 1.4375 3.93125 1.4375 4.3125V20.125C1.4375 20.5062 1.58895 20.8719 1.85853 21.1415C2.12812 21.411 2.49375 21.5625 2.875 21.5625H20.125C20.5062 21.5625 20.8719 21.411 21.1415 21.1415C21.411 20.8719 21.5625 20.5062 21.5625 20.125V4.3125C21.5625 3.93125 21.411 3.56562 21.1415 3.29603C20.8719 3.02645 20.5062 2.875 20.125 2.875H2.875Z" fill="#ffffff"/>
<path d="M3.59372 5.74988C3.59372 5.55925 3.66944 5.37644 3.80424 5.24165C3.93903 5.10685 4.12185 5.03113 4.31247 5.03113H18.6875C18.8781 5.03113 19.0609 5.10685 19.1957 5.24165C19.3305 5.37644 19.4062 5.55925 19.4062 5.74988V7.18738C19.4062 7.378 19.3305 7.56082 19.1957 7.69561C19.0609 7.8304 18.8781 7.90613 18.6875 7.90613H4.31247C4.12185 7.90613 3.93903 7.8304 3.80424 7.69561C3.66944 7.56082 3.59372 7.378 3.59372 7.18738V5.74988ZM15.8125 10.7811C15.8125 10.5905 15.8882 10.4077 16.023 10.2729C16.1578 10.1381 16.3406 10.0624 16.5312 10.0624H17.9687C18.1593 10.0624 18.3422 10.1381 18.477 10.2729C18.6117 10.4077 18.6875 10.5905 18.6875 10.7811V12.2186C18.6875 12.4093 18.6117 12.5921 18.477 12.7269C18.3422 12.8617 18.1593 12.9374 17.9687 12.9374H16.5312C16.3406 12.9374 16.1578 12.8617 16.023 12.7269C15.8882 12.5921 15.8125 12.4093 15.8125 12.2186V10.7811ZM11.5 10.7811C11.5 10.5905 11.5757 10.4077 11.7105 10.2729C11.8453 10.1381 12.0281 10.0624 12.2187 10.0624H13.6562C13.8468 10.0624 14.0297 10.1381 14.1645 10.2729C14.2992 10.4077 14.375 10.5905 14.375 10.7811V12.2186C14.375 12.4093 14.2992 12.5921 14.1645 12.7269C14.0297 12.8617 13.8468 12.9374 13.6562 12.9374H12.2187C12.0281 12.9374 11.8453 12.8617 11.7105 12.7269C11.5757 12.5921 11.5 12.4093 11.5 12.2186V10.7811ZM4.31247 15.0936C4.31247 14.903 4.38819 14.7202 4.52299 14.5854C4.65778 14.4506 4.8406 14.3749 5.03122 14.3749H6.46872C6.65934 14.3749 6.84216 14.4506 6.97695 14.5854C7.11174 14.7202 7.18747 14.903 7.18747 15.0936V16.5311C7.18747 16.7218 7.11174 16.9046 6.97695 17.0394C6.84216 17.1742 6.65934 17.2499 6.46872 17.2499H5.03122C4.8406 17.2499 4.65778 17.1742 4.52299 17.0394C4.38819 16.9046 4.31247 16.7218 4.31247 16.5311V15.0936ZM8.62497 15.0936C8.62497 14.903 8.7007 14.7202 8.83549 14.5854C8.97028 14.4506 9.1531 14.3749 9.34372 14.3749H10.7812C10.9718 14.3749 11.1547 14.4506 11.2895 14.5854C11.4242 14.7202 11.5 14.903 11.5 15.0936V16.5311C11.5 16.7218 11.4242 16.9046 11.2895 17.0394C11.1547 17.1742 10.9718 17.2499 10.7812 17.2499H9.34372C9.1531 17.2499 8.97028 17.1742 8.83549 17.0394C8.7007 16.9046 8.62497 16.7218 8.62497 16.5311V15.0936Z" fill="#ffffff"/>
</svg>
