<svg width="128" height="96" viewBox="0 0 128 96" fill="none" xmlns="http://www.w3.org/2000/svg">
<path d="M0 16C0 11.7565 1.68571 7.68687 4.68629 4.68629C7.68687 1.68571 11.7565 0 16 0H112C116.243 0 120.313 1.68571 123.314 4.68629C126.314 7.68687 128 11.7565 128 16V80C128 84.2435 126.314 88.3131 123.314 91.3137C120.313 94.3143 116.243 96 112 96H16C11.7565 96 7.68687 94.3143 4.68629 91.3137C1.68571 88.3131 0 84.2435 0 80V16ZM16 8C13.8783 8 11.8434 8.84285 10.3431 10.3431C8.84285 11.8434 8 13.8783 8 16V17.736L64 51.336L120 17.736V16C120 13.8783 119.157 11.8434 117.657 10.3431C116.157 8.84285 114.122 8 112 8H16ZM120 27.064L82.336 49.664L120 72.84V27.064ZM119.728 82.072L74.608 54.304L64 60.664L53.392 54.304L8.272 82.064C8.72661 83.7664 9.73053 85.2711 11.1279 86.3444C12.5253 87.4178 14.238 87.9997 16 88H112C113.761 88.0002 115.473 87.4194 116.87 86.3476C118.267 85.2758 119.272 83.7729 119.728 82.072ZM8 72.84L45.664 49.664L8 27.064V72.84Z" fill="#BABABA"/>
</svg>
