<svg width="23" height="22" viewBox="0 0 23 22" fill="none" xmlns="http://www.w3.org/2000/svg">
<path d="M11.5002 3.95044L10.4695 2.89097C8.05009 0.40402 3.61383 1.26223 2.01241 4.38889C1.26057 5.8595 1.09094 7.98275 2.4638 10.6925C3.78634 13.3017 6.5378 16.4269 11.5002 19.831C16.4626 16.4269 19.2126 13.3017 20.5366 10.6925C21.9095 7.98131 21.7413 5.8595 20.988 4.38889C19.3866 1.26223 14.9503 0.402582 12.5309 2.88953L11.5002 3.95044ZM11.5002 21.5632C-10.5417 6.99803 4.71355 -4.37006 11.2472 1.64318C11.3334 1.72225 11.4183 1.80419 11.5002 1.889C11.5813 1.80426 11.6657 1.72274 11.7532 1.64462C18.2854 -4.37294 33.5421 6.9966 11.5002 21.5632Z" fill="#858585"/>
</svg>
