<svg width="23" height="22" viewBox="0 0 23 22" fill="none" xmlns="http://www.w3.org/2000/svg">
<path fill-rule="evenodd" clip-rule="evenodd" d="M11.5 3.19789L20.6992 12.3971V18.8473C20.6992 19.4573 20.4569 20.0422 20.0256 20.4735C19.5943 20.9048 19.0093 21.1471 18.3994 21.1471H4.60056C3.99061 21.1471 3.40565 20.9048 2.97435 20.4735C2.54305 20.0422 2.30075 19.4573 2.30075 18.8473V12.3971L11.5 3.19789ZM19.166 1.98206V7.34827L16.0996 4.28186V1.98206C16.0996 1.77874 16.1804 1.58375 16.3241 1.43999C16.4679 1.29622 16.6629 1.21545 16.8662 1.21545H18.3994C18.6027 1.21545 18.7977 1.29622 18.9415 1.43999C19.0852 1.58375 19.166 1.77874 19.166 1.98206Z" fill="#858585"/>
<path fill-rule="evenodd" clip-rule="evenodd" d="M10.416 0.448902C10.7035 0.16147 11.0935 0 11.5 0C11.9066 0 12.2965 0.16147 12.584 0.448902L22.7752 10.6386C22.9191 10.7825 23 10.9778 23 11.1813C23 11.3849 22.9191 11.5801 22.7752 11.7241C22.6312 11.868 22.436 11.9489 22.2324 11.9489C22.0289 11.9489 21.8336 11.868 21.6897 11.7241L11.5 1.53288L1.31032 11.7241C1.16638 11.868 0.971143 11.9489 0.76757 11.9489C0.563998 11.9489 0.368764 11.868 0.224816 11.7241C0.0808688 11.5801 0 11.3849 0 11.1813C0 10.9778 0.0808688 10.7825 0.224816 10.6386L10.416 0.448902Z" fill="#858585"/>
</svg>
