<svg width="128" height="128" viewBox="0 0 128 128" fill="none" xmlns="http://www.w3.org/2000/svg">
<g clip-path="url(#clip0_68_4)">
<path d="M127.994 63.9938C127.994 72.6313 126.306 81.0188 122.969 88.9063C119.744 96.5313 115.119 103.369 109.244 109.244C103.369 115.119 96.5313 119.744 88.9063 122.969C81.0188 126.306 72.6313 127.994 63.9938 127.994C61.5063 127.994 59.4938 125.981 59.4938 123.494C59.4938 121.006 61.5063 118.994 63.9938 118.994C71.4188 118.994 78.6188 117.544 85.4063 114.669C91.9563 111.894 97.8438 107.931 102.894 102.881C107.944 97.8313 111.919 91.9438 114.681 85.3938C117.544 78.6188 118.994 71.4188 118.994 63.9938C118.994 56.5688 117.544 49.3688 114.669 42.5813C111.894 36.0313 107.931 30.1438 102.881 25.0938C97.8313 20.0438 91.9438 16.0688 85.3938 13.3063C78.6188 10.4438 71.4188 8.99377 63.9938 8.99377C56.5688 8.99377 49.3688 10.4438 42.5813 13.3188C36.047 16.0844 30.1089 20.087 25.0938 25.1063C20.0677 30.1159 16.0642 36.0554 13.3063 42.5938C10.4438 49.3688 8.99377 56.5688 8.99377 63.9938C8.99377 66.4813 6.98127 68.4938 4.49377 68.4938C2.00627 68.4938 -0.00622827 66.4813 -0.00622838 63.9938C-0.00622876 55.3563 1.68127 46.9688 5.01877 39.0813C8.24377 31.4563 12.8688 24.6188 18.7438 18.7438C24.6188 12.8688 31.4688 8.25627 39.0813 5.03127C46.9688 1.69377 55.3563 0.00626894 63.9938 0.00626856C72.6313 0.00626819 81.0188 1.69377 88.9063 5.03127C96.5313 8.24377 103.369 12.8688 109.244 18.7438C115.119 24.6188 119.731 31.4688 122.956 39.0813C126.306 46.9688 127.994 55.3563 127.994 63.9938Z" fill="white"/>
</g>
<defs>
<clipPath id="clip0_68_4">
<rect width="128" height="128" fill="white"/>
</clipPath>
</defs>
</svg>
