<svg width="169" height="173" viewBox="0 0 169 173" fill="none" xmlns="http://www.w3.org/2000/svg">
<path d="M98.0203 73.8276C89.7447 72.9565 85.135 76.7314 83.8647 78.7277V93.9722L86.0425 98.3277L89.8536 102.139C95.8425 105.406 107.494 110.414 117.076 102.139C126.658 93.8633 127.602 87.4388 126.876 85.261C126.876 84.1721 122.94 82.9138 121.976 85.8055C121.431 87.4388 118.709 90.887 117.076 92.3388C112.176 78.7277 108.365 74.9165 98.0203 73.8276Z" fill="white"/>
<path d="M69.709 73.8277C77.9846 72.9565 82.5942 76.7314 83.8646 78.7277V93.9722L81.6868 98.3277L77.8757 102.139C71.8868 105.406 60.2356 110.414 50.6534 102.139C41.0711 93.8633 40.1274 87.4388 40.8533 85.261C40.8533 84.1721 44.7895 82.9138 45.7533 85.8055C46.2978 87.4388 49.02 90.887 50.6534 92.3388C55.5534 78.7277 59.3645 74.9165 69.709 73.8277Z" fill="white"/>
<rect y="79.1298" width="30.4962" height="15.2481" fill="white"/>
<rect x="138.504" y="78.782" width="30.4962" height="15.2481" fill="white"/>
<rect x="76.5883" y="30.4962" width="30.4962" height="15.2481" transform="rotate(-90 76.5883 30.4962)" fill="white"/>
<rect x="76.5883" y="172.812" width="30.4962" height="15.2481" transform="rotate(-90 76.5883 172.812)" fill="white"/>
<path fill-rule="evenodd" clip-rule="evenodd" d="M83.8646 160.988C125.055 160.988 158.447 127.597 158.447 86.406C158.447 45.2155 125.055 11.824 83.8646 11.824C42.6741 11.824 9.28261 45.2155 9.28261 86.406C9.28261 127.597 42.6741 160.988 83.8646 160.988ZM84.5001 149.94C119.94 149.94 148.669 121.21 148.669 85.7707C148.669 50.331 119.94 21.6015 84.5001 21.6015C49.0604 21.6015 20.3309 50.331 20.3309 85.7707C20.3309 121.21 49.0604 149.94 84.5001 149.94Z" fill="white"/>
</svg>
