<svg width="25" height="26" viewBox="0 0 25 26" fill="none" xmlns="http://www.w3.org/2000/svg">
<path d="M14.5 10.9212C13.2758 10.7924 12.5939 11.3508 12.406 11.6461V13.9012L12.7282 14.5455L13.2919 15.1093C14.1779 15.5925 15.9014 16.3335 17.3189 15.1093C18.7364 13.8851 18.876 12.9347 18.7686 12.6126C18.7686 12.4515 18.1863 12.2653 18.0437 12.6931C17.9632 12.9347 17.5605 13.4448 17.3189 13.6596C16.594 11.6461 16.0303 11.0823 14.5 10.9212Z" fill="white"/>
<path d="M10.312 10.9212C11.5362 10.7924 12.2181 11.3508 12.406 11.6461V13.9012L12.0838 14.5455L11.5201 15.1093C10.6341 15.5925 8.91058 16.3335 7.49309 15.1093C6.07559 13.8851 5.93599 12.9347 6.04338 12.6126C6.04338 12.4515 6.62565 12.2653 6.76823 12.6931C6.84877 12.9347 7.25147 13.4448 7.49309 13.6596C8.21794 11.6461 8.78172 11.0823 10.312 10.9212Z" fill="white"/>
<rect y="11.7056" width="4.51128" height="2.25564" fill="white"/>
<rect x="20.4887" y="11.6541" width="4.51128" height="2.25564" fill="white"/>
<rect x="11.3297" y="4.51132" width="4.51128" height="2.25564" transform="rotate(-90 11.3297 4.51132)" fill="white"/>
<rect x="11.3297" y="25.5639" width="4.51128" height="2.25564" transform="rotate(-90 11.3297 25.5639)" fill="white"/>
<path fill-rule="evenodd" clip-rule="evenodd" d="M12.406 23.8148C18.4993 23.8148 23.4389 18.8752 23.4389 12.782C23.4389 6.68869 18.4993 1.74911 12.406 1.74911C6.31274 1.74911 1.37317 6.68869 1.37317 12.782C1.37317 18.8752 6.31274 23.8148 12.406 23.8148ZM12.5 22.1804C17.7426 22.1804 21.9925 17.9305 21.9925 12.688C21.9925 7.44541 17.7426 3.19548 12.5 3.19548C7.25746 3.19548 3.00753 7.44541 3.00753 12.688C3.00753 17.9305 7.25746 22.1804 12.5 22.1804Z" fill="white"/>
</svg>
