<svg width="128" height="128" viewBox="0 0 128 128" fill="none" xmlns="http://www.w3.org/2000/svg">
<g clip-path="url(#clip0_75_2)">
<path d="M12 8C10.9391 8 9.92172 8.42143 9.17157 9.17157C8.42143 9.92172 8 10.9391 8 12V36C8 37.0609 7.57857 38.0783 6.82843 38.8284C6.07828 39.5786 5.06087 40 4 40C2.93913 40 1.92172 39.5786 1.17157 38.8284C0.421427 38.0783 0 37.0609 0 36V12C0 8.8174 1.26428 5.76516 3.51472 3.51472C5.76516 1.26428 8.8174 0 12 0L36 0C37.0609 0 38.0783 0.421427 38.8284 1.17157C39.5786 1.92172 40 2.93913 40 4C40 5.06087 39.5786 6.07828 38.8284 6.82843C38.0783 7.57857 37.0609 8 36 8H12ZM88 4C88 2.93913 88.4214 1.92172 89.1716 1.17157C89.9217 0.421427 90.9391 0 92 0L116 0C119.183 0 122.235 1.26428 124.485 3.51472C126.736 5.76516 128 8.8174 128 12V36C128 37.0609 127.579 38.0783 126.828 38.8284C126.078 39.5786 125.061 40 124 40C122.939 40 121.922 39.5786 121.172 38.8284C120.421 38.0783 120 37.0609 120 36V12C120 10.9391 119.579 9.92172 118.828 9.17157C118.078 8.42143 117.061 8 116 8H92C90.9391 8 89.9217 7.57857 89.1716 6.82843C88.4214 6.07828 88 5.06087 88 4ZM4 88C5.06087 88 6.07828 88.4214 6.82843 89.1716C7.57857 89.9217 8 90.9391 8 92V116C8 117.061 8.42143 118.078 9.17157 118.828C9.92172 119.579 10.9391 120 12 120H36C37.0609 120 38.0783 120.421 38.8284 121.172C39.5786 121.922 40 122.939 40 124C40 125.061 39.5786 126.078 38.8284 126.828C38.0783 127.579 37.0609 128 36 128H12C8.8174 128 5.76516 126.736 3.51472 124.485C1.26428 122.235 0 119.183 0 116L0 92C0 90.9391 0.421427 89.9217 1.17157 89.1716C1.92172 88.4214 2.93913 88 4 88ZM124 88C125.061 88 126.078 88.4214 126.828 89.1716C127.579 89.9217 128 90.9391 128 92V116C128 119.183 126.736 122.235 124.485 124.485C122.235 126.736 119.183 128 116 128H92C90.9391 128 89.9217 127.579 89.1716 126.828C88.4214 126.078 88 125.061 88 124C88 122.939 88.4214 121.922 89.1716 121.172C89.9217 120.421 90.9391 120 92 120H116C117.061 120 118.078 119.579 118.828 118.828C119.579 118.078 120 117.061 120 116V92C120 90.9391 120.421 89.9217 121.172 89.1716C121.922 88.4214 122.939 88 124 88Z" fill="#919191"/>
<path d="M24 112C24 112 16 112 16 104C16 96 24 72 64 72C104 72 112 96 112 104C112 112 104 112 104 112H24ZM88 40C88 46.3652 85.4714 52.4697 80.9706 56.9706C76.4697 61.4714 70.3652 64 64 64C57.6348 64 51.5303 61.4714 47.0294 56.9706C42.5286 52.4697 40 46.3652 40 40C40 33.6348 42.5286 27.5303 47.0294 23.0294C51.5303 18.5286 57.6348 16 64 16C70.3652 16 76.4697 18.5286 80.9706 23.0294C85.4714 27.5303 88 33.6348 88 40Z" fill="#919191"/>
</g>
<defs>
<clipPath id="clip0_75_2">
<rect width="128" height="128" fill="white"/>
</clipPath>
</defs>
</svg>
