<svg width="23" height="23" viewBox="0 0 23 23" fill="none" xmlns="http://www.w3.org/2000/svg">
<path d="M16.8798 14.8663C18.2717 12.967 18.8951 10.6121 18.6253 8.27293C18.3555 5.93371 17.2124 3.78262 15.4247 2.25C13.6371 0.717384 11.3366 -0.0837299 8.98365 0.00693436C6.63068 0.0975986 4.3987 1.07335 2.73426 2.73899C1.06982 4.40462 0.0956597 6.6373 0.00667914 8.99034C-0.0823014 11.3434 0.720458 13.6432 2.25435 15.4298C3.78825 17.2164 5.94016 18.3579 8.27957 18.626C10.619 18.8942 12.9734 18.2691 14.8717 16.8758H14.8702C14.9134 16.9333 14.9594 16.988 15.0111 17.0411L20.5453 22.5753C20.8148 22.845 21.1804 22.9966 21.5618 22.9968C21.9431 22.9969 22.3088 22.8456 22.5785 22.576C22.8483 22.3065 22.9999 21.9408 23 21.5595C23.0001 21.1782 22.8488 20.8125 22.5793 20.5428L17.0451 15.0086C16.9937 14.9566 16.9384 14.91 16.8798 14.8663ZM17.2506 9.34074C17.2506 10.379 17.0461 11.407 16.6488 12.3662C16.2515 13.3254 15.6692 14.197 14.935 14.9311C14.2009 15.6652 13.3294 16.2476 12.3702 16.6449C11.411 17.0422 10.3829 17.2467 9.34469 17.2467C8.30647 17.2467 7.27841 17.0422 6.31921 16.6449C5.36002 16.2476 4.48847 15.6652 3.75434 14.9311C3.0202 14.197 2.43785 13.3254 2.04054 12.3662C1.64323 11.407 1.43874 10.379 1.43874 9.34074C1.43874 7.24395 2.27168 5.23304 3.75434 3.75038C5.23699 2.26773 7.2479 1.43478 9.34469 1.43478C11.4415 1.43478 13.4524 2.26773 14.935 3.75038C16.4177 5.23304 17.2506 7.24395 17.2506 9.34074Z" fill="#ffffff"/>
</svg>
