<svg width="177" height="177" viewBox="0 0 177 177" fill="none" xmlns="http://www.w3.org/2000/svg">
<path d="M171.279 62.3267L118.218 54.2514L94.4983 3.8955C93.8504 2.51678 92.7846 1.40068 91.468 0.722265C88.166 -0.984715 84.1535 0.437768 82.5026 3.8955L58.7828 54.2514L5.72167 62.3267C4.25878 62.5456 2.92128 63.2678 1.89725 64.362C0.659264 65.6944 -0.0229237 67.4871 0.000588206 69.346C0.0241001 71.2049 0.751388 72.9779 2.02264 74.2756L40.4131 113.47L31.3432 168.816C31.1305 170.103 31.2665 171.428 31.7359 172.638C32.2053 173.849 32.9892 174.897 33.9987 175.665C35.0082 176.433 36.203 176.889 37.4476 176.982C38.6922 177.075 39.9367 176.801 41.04 176.191L88.5004 150.061L135.961 176.191C137.256 176.913 138.761 177.154 140.203 176.891C143.84 176.235 146.285 172.624 145.658 168.816L136.588 113.47L174.978 74.2756C176.023 73.2033 176.713 71.8027 176.922 70.2708C177.486 66.441 174.936 62.8957 171.279 62.3267Z" fill="#Ffd700"/>
</svg>
