<svg width="177" height="177" viewBox="0 0 177 177" fill="none" xmlns="http://www.w3.org/2000/svg">
<path d="M64.5 60L89 6.5V145.5L38 171.5L46 111.5L8 71L64.5 60Z" fill="#Ffd700"/>
<path d="M112.79 56.8082L114.153 59.7019L117.315 60.1831L170.357 68.2554C170.358 68.2556 170.359 68.2558 170.361 68.2561C170.488 68.2769 170.65 68.352 170.798 68.5593C170.948 68.7689 171.036 69.058 170.986 69.3962L170.981 69.4279L170.977 69.4597C170.941 69.7235 170.826 69.9382 170.683 70.0861C170.682 70.0868 170.682 70.0875 170.681 70.0882L132.301 109.272L130.175 111.443L130.667 114.441L139.737 169.786L139.737 169.791C139.795 170.143 139.709 170.452 139.558 170.675C139.41 170.895 139.251 170.966 139.137 170.987L139.128 170.988C139.039 171.005 138.949 170.987 138.882 170.95L138.868 170.943L138.855 170.935L91.3942 144.805L88.5004 143.212L85.6066 144.805L38.1463 170.935L38.1369 170.94C38.044 170.992 37.9622 171.004 37.8944 170.999C37.8258 170.994 37.7336 170.968 37.6309 170.89C37.5253 170.809 37.4088 170.672 37.3301 170.469C37.2509 170.265 37.2243 170.028 37.2629 169.794L37.2642 169.786L46.3341 114.441L46.8255 111.443L44.6995 109.272L6.30904 70.0772L6.30866 70.0768C6.14545 69.9102 6.0046 69.6255 6.00011 69.2701C5.99568 68.9196 6.12559 68.6304 6.2857 68.4537C6.42381 68.3094 6.54448 68.2704 6.60937 68.2607L6.61689 68.2596L6.62441 68.2584L59.6856 60.1831L62.8478 59.7019L64.2108 56.8082L87.917 6.48076C87.9184 6.47788 87.9198 6.47502 87.9212 6.47217C88.0577 6.19151 88.2402 6.07357 88.369 6.02797C88.492 5.98442 88.5935 5.9906 88.7126 6.05219L88.7197 6.05584C88.8243 6.10974 88.9656 6.22936 89.0679 6.4472L89.0703 6.4523L112.79 56.8082ZM82.5026 3.8955L58.7828 54.2514L91.468 0.722265C88.166 -0.984715 84.1535 0.437768 82.5026 3.8955Z" stroke="#Ffd700" stroke-width="12"/>
</svg>
